<?xml version="1.0" encoding="utf-8"?>
<!-- Generator: Adobe Illustrator 16.0.0, SVG Export Plug-In . SVG Version: 6.00 Build 0)  -->
<!DOCTYPE svg PUBLIC "-//W3C//DTD SVG 1.1//EN" "http://www.w3.org/Graphics/SVG/1.1/DTD/svg11.dtd">
<svg version="1.1" id="Capa_1" xmlns="http://www.w3.org/2000/svg" xmlns:xlink="http://www.w3.org/1999/xlink" x="0px" y="0px"
	 width="595.28px" height="431.292px" viewBox="0 0 595.28 431.292" enable-background="new 0 0 595.28 431.292"
	 xml:space="preserve">
<rect fill="#3C3C3B" width="595.28" height="431.292"/>
<g>
	<path fill="#B2B2B2" d="M197.675,255.075h1.913v15.134h-1.913V255.075z"/>
	<path fill="#B2B2B2" d="M209.791,258.242v11.967h-1.913v-15.134h2.083l8.077,11.967v-11.967h1.913v15.134h-2.062L209.791,258.242z"
		/>
	<path fill="#B2B2B2" d="M227.497,255.075h4.889c4.293,0,7.779,3.401,7.779,7.567s-3.486,7.566-7.779,7.566h-4.889V255.075z
		 M238.273,262.643c0-3.125-2.636-5.719-5.888-5.719h-2.997v11.436h2.997C235.637,268.359,238.273,265.767,238.273,262.643z"/>
	<path fill="#B2B2B2" d="M261.909,262.535c0,4.357-3.571,7.887-7.928,7.887s-7.907-3.529-7.907-7.887
		c0-4.378,3.55-7.928,7.907-7.928S261.909,258.157,261.909,262.535z M259.975,262.535c0-3.315-2.678-6.057-5.994-6.057
		s-5.994,2.741-5.994,6.057c0,3.295,2.678,6.016,5.994,6.016S259.975,265.83,259.975,262.535z"/>
	<path fill="#B2B2B2" d="M283.441,262.535c0,4.357-3.571,7.887-7.928,7.887s-7.907-3.529-7.907-7.887
		c0-4.378,3.55-7.928,7.907-7.928S283.441,258.157,283.441,262.535z M281.507,262.535c0-3.315-2.678-6.057-5.994-6.057
		s-5.994,2.741-5.994,6.057c0,3.295,2.678,6.016,5.994,6.016S281.507,265.83,281.507,262.535z"/>
	<path fill="#B2B2B2" d="M301.764,270.209h-2.189l-5.782-7.949h-2.168v7.949h-1.828v-15.134h5.25c0.957,0,1.849,0.382,2.529,1.062
		s1.063,1.573,1.063,2.53c0,1.679-1.169,3.082-2.721,3.485L301.764,270.209z M291.625,260.432h3.422
		c0.978,0,1.764-0.787,1.764-1.764c0-0.979-0.787-1.766-1.764-1.766h-3.422V260.432z"/>
	<path fill="#B2B2B2" d="M316.961,255.075h5.271c0.957,0,1.871,0.382,2.551,1.062s1.062,1.595,1.062,2.551
		c0,1.998-1.637,3.593-3.613,3.593h-3.379v7.928h-1.893V255.075z M323.934,258.688c0-0.956-0.766-1.765-1.701-1.765h-3.379v3.508
		h3.379C323.168,260.432,323.934,259.645,323.934,258.688z"/>
	<path fill="#B2B2B2" d="M347.379,262.535c0,4.357-3.571,7.887-7.929,7.887s-7.907-3.529-7.907-7.887
		c0-4.378,3.55-7.928,7.907-7.928S347.379,258.157,347.379,262.535z M345.444,262.535c0-3.315-2.679-6.057-5.994-6.057
		s-5.994,2.741-5.994,6.057c0,3.295,2.679,6.016,5.994,6.016S345.444,265.83,345.444,262.535z"/>
	<path fill="#B2B2B2" d="M357.518,270.188c-1.573-0.318-3.125-1.105-4.507-2.295l1.255-1.425c1.126,0.978,2.38,1.637,3.635,1.892
		c1.062,0.234,2.104,0.149,2.933-0.233c0.553-0.255,1.509-0.893,1.509-2.189c0-1.595-1.7-2.168-3.357-2.487
		c-0.149-0.021-2.529-0.51-3.486-1.062c-1.275-0.766-1.955-1.912-1.955-3.315c0-0.786,0.254-1.53,0.701-2.189
		c0.445-0.595,1.062-1.084,1.785-1.425c1.062-0.51,2.316-0.658,3.592-0.445c1.382,0.233,2.785,0.893,4.018,1.912l-1.211,1.467
		c-2.189-1.807-4.315-1.85-5.591-1.254c-0.872,0.404-1.382,1.148-1.382,1.913c0,1.445,1.232,1.998,3.188,2.423
		c0.808,0.191,2.487,0.468,3.485,1.042c1.383,0.765,2.105,1.956,2.105,3.422c0,0.872-0.234,1.679-0.723,2.381
		c-0.447,0.638-1.127,1.126-1.893,1.509c-0.808,0.404-1.637,0.531-2.572,0.531C358.537,270.357,358.027,270.294,357.518,270.188z"/>
	<path fill="#B2B2B2" d="M371.291,255.075h1.914v15.134h-1.914V255.075z"/>
	<path fill="#B2B2B2" d="M384.788,256.945h-3.996v-1.87h9.905v1.87h-3.996v13.264h-1.913V256.945z"/>
	<path fill="#B2B2B2" d="M398.285,255.075h1.914v15.134h-1.914V255.075z"/>
	<path fill="#B2B2B2" d="M423.133,262.535c0,4.357-3.57,7.887-7.928,7.887s-7.907-3.529-7.907-7.887c0-4.378,3.55-7.928,7.907-7.928
		S423.133,258.157,423.133,262.535z M421.199,262.535c0-3.315-2.678-6.057-5.994-6.057s-5.994,2.741-5.994,6.057
		c0,3.295,2.678,6.016,5.994,6.016S421.199,265.83,421.199,262.535z"/>
	<path fill="#B2B2B2" d="M431.721,258.242v11.967h-1.913v-15.134h2.083l8.077,11.967v-11.967h1.913v15.134h-2.062L431.721,258.242z"
		/>
	<path fill="#B2B2B2" d="M450.383,255.075h1.913v15.134h-1.913V255.075z"/>
	<path fill="#B2B2B2" d="M462.498,258.242v11.967h-1.912v-15.134h2.082l8.078,11.967v-11.967h1.912v15.134h-2.062L462.498,258.242z"
		/>
	<path fill="#B2B2B2" d="M493.851,260.475v6.695c-1.509,2.019-3.89,3.273-6.397,3.273c-4.357,0-7.908-3.551-7.908-7.929
		c0-4.357,3.551-7.907,7.908-7.907c2.146,0,4.145,0.85,5.611,2.338l-1.403,1.232c-1.105-1.104-2.614-1.699-4.208-1.699
		c-3.338,0-6.037,2.699-6.037,6.036c0,3.358,2.699,6.058,6.037,6.058c1.764,0,3.379-0.744,4.548-2.041v-4.188h-4.442v-1.869H493.851
		z"/>
</g>
<g>
	<path fill="#00A1DF" d="M151.112,202.515l-19.107,52.133l-4.076-28.954l-28.952-4.074L151.112,202.515z"/>
	<path fill="#0075C9" d="M151.112,202.515l-19.107,52.133l-4.076-28.954l0,0L151.112,202.515z"/>
</g>
<path fill="#FFFFFF" d="M247.553,181.86v9.049c-7.319,0-19.739,0.022-37.259,0.066c-1.642,0-2.961,0.432-3.959,1.297
	c-0.998,0.865-1.497,1.986-1.497,3.359v6.255c0,1.376,0.499,2.495,1.497,3.36c0.998,0.864,2.317,1.297,3.959,1.297h28.343
	c3.947,0,7.307,1.188,10.08,3.56c2.771,2.374,4.158,5.245,4.158,8.616v10.445c0,3.371-1.387,6.232-4.158,8.583
	c-2.772,2.352-6.132,3.526-10.08,3.526h-41.783v-9.049h39.92c1.64,0,2.96-0.432,3.958-1.297s1.497-1.984,1.497-3.36v-7.651
	c0-1.374-0.489-2.483-1.464-3.326c-0.976-0.842-2.285-1.264-3.925-1.264h-28.41c-3.949,0-7.309-1.188-10.08-3.561
	c-2.772-2.372-4.158-5.244-4.158-8.615v-9.115c0-3.371,1.386-6.243,4.158-8.616c2.771-2.372,6.131-3.56,10.08-3.56H247.553z"/>
<rect x="260.859" y="166.769" fill="#00A1DF" width="10.646" height="9.648"/>
<rect x="260.859" y="181.86" fill="#FFFFFF" width="10.646" height="59.414"/>
<path fill="#FFFFFF" d="M290.201,166.769v15.092h27.212v9.646h-27.146v31.67c0,2.308,0.798,4.303,2.396,5.988
	c1.597,1.687,3.593,2.529,5.988,2.529h18.763v9.58H297.12c-4.835,0-8.972-1.541-12.409-4.624c-3.438-3.083-5.156-6.797-5.156-11.145
	c0-17.653-0.023-36.017-0.066-58.737H290.201z"/>
<path fill="#FFFFFF" d="M386.075,225.506c0,4.348-1.709,8.062-5.123,11.145c-3.416,3.083-7.541,4.624-12.376,4.624h-26.347
	c-4.836,0-8.961-1.541-12.375-4.624c-3.416-3.083-5.123-6.797-5.123-11.145V181.86h10.711v41.383c0,2.44,0.887,4.448,2.662,6.021
	c1.773,1.576,3.992,2.362,6.652,2.362h21.225c2.662,0,4.879-0.786,6.653-2.362c1.774-1.573,2.661-3.581,2.661-6.021V181.86h10.779
	V225.506z"/>
<path fill="#FFFFFF" d="M430.985,181.86c2.527,0,5.056,0.698,7.584,2.096c2.528,1.396,4.213,3.227,5.057,5.488
	c0.799-2.217,2.495-4.035,5.09-5.455c2.595-1.419,5.156-2.129,7.685-2.129h20.626c4.834,0,8.959,1.553,12.375,4.657
	c3.414,3.104,5.123,6.831,5.123,11.178v43.579h-10.779c0-3.016,0-7.086,0-12.209s0-10.756,0-16.899c0-6.143,0-10.213,0-12.209
	c0-2.438-0.876-4.458-2.627-6.054c-1.754-1.598-3.959-2.396-6.621-2.396H458.33c-2.573,0-4.78,0.766-6.62,2.296
	c-1.842,1.53-2.762,3.45-2.762,5.755v41.717h-10.711v-41.717c0-2.35-0.889-4.279-2.662-5.788c-1.774-1.507-3.992-2.263-6.652-2.263
	h-16.102c-2.662,0-4.891,0.799-6.688,2.396c-1.796,1.596-2.693,3.615-2.693,6.054c0,1.996-0.033,6.066-0.1,12.209
	c-0.067,6.144-0.057,11.776,0.033,16.899c0.088,5.123,0.109,9.193,0.066,12.209h-10.713v-43.579c0-4.347,1.719-8.073,5.156-11.178
	s7.574-4.657,12.409-4.657H430.985z"/>
<g>
	<path fill="#00A1DF" d="M130.074,179.91c-24.938,0-45.153,20.215-45.153,45.152s20.215,45.152,45.153,45.152
		s45.152-20.215,45.152-45.152S155.012,179.91,130.074,179.91z M130.074,265.882c-22.544,0-40.819-18.275-40.819-40.819
		s18.275-40.819,40.819-40.819s40.819,18.275,40.819,40.819S152.618,265.882,130.074,265.882z"/>
</g>
</svg>
